<svg width="24" height="24" viewBox="0 0 24 24" fill="none" xmlns="http://www.w3.org/2000/svg">
<path fill-rule="evenodd" clip-rule="evenodd" d="M21.5999 12C21.5999 17.302 17.3019 21.6 11.9999 21.6C6.69797 21.6 2.3999 17.302 2.3999 12C2.3999 6.69809 6.69797 2.40002 11.9999 2.40002C17.3019 2.40002 21.5999 6.69809 21.5999 12ZM13.1999 16.8C13.1999 17.4628 12.6627 18 11.9999 18C11.3372 18 10.7999 17.4628 10.7999 16.8C10.7999 16.1373 11.3372 15.6 11.9999 15.6C12.6627 15.6 13.1999 16.1373 13.1999 16.8ZM11.9999 6.00002C11.3372 6.00002 10.7999 6.53729 10.7999 7.20002V12C10.7999 12.6628 11.3372 13.2 11.9999 13.2C12.6627 13.2 13.1999 12.6628 13.1999 12V7.20002C13.1999 6.53729 12.6627 6.00002 11.9999 6.00002Z" fill="white"/>
</svg>
